<svg width="80" height="80" viewBox="0 0 80 80" fill="none" xmlns="http://www.w3.org/2000/svg">
<path d="M75.9251 78.6449C75.2984 80.8133 72.0217 80.2233 72.2101 77.9233C73.1584 66.3766 69.4767 55.9816 61.6117 48.2766C53.7084 40.5333 37.5284 37.0766 27.6934 38.5666L33.4684 43.3016C34.4117 44.0783 35.0101 45.1949 35.1284 46.4116C35.5251 50.4783 30.8067 52.9983 27.6451 50.4083L3.5084 30.6316C2.0084 29.4016 1.7934 27.1883 3.03007 25.6933L22.9084 1.67494C25.5134 -1.47339 30.6234 0.0932725 31.0201 4.15994C31.1767 5.33827 30.8351 6.52661 30.0767 7.44161L25.7284 12.6966C39.3901 13.2033 51.8967 18.4866 61.6967 28.0883C75.6167 41.7249 80.9351 61.3266 75.9251 78.6449Z" fill="white"/>
</svg>
