<svg width="300" height="380" viewBox="0 0 300 380" fill="none" xmlns="http://www.w3.org/2000/svg">
<g clip-path="url(#clip0_509_705)">
<path d="M37.8513 144.382C41.5018 132.761 48.2542 124.388 58.314 117.633C60.7105 116.025 63.1142 114.7 65.4884 113.651C64.4221 113.051 63.2687 112.481 62.0309 111.943C60.4896 111.273 58.9474 110.726 57.4133 110.289C41.523 105.727 26.3542 112.632 20.7929 115.341C14.6936 118.313 4.06543 119.629 4.06543 119.629C13.9066 130.602 22.5314 137.744 30.924 141.756C33.2435 142.867 35.5463 143.737 37.8513 144.382Z" fill="#419691"/>
<path d="M37.8514 144.382C41.5019 132.761 48.2543 124.388 58.3141 117.633C60.7106 116.025 63.1143 114.7 65.4885 113.651C64.4223 113.051 63.2688 112.481 62.031 111.943C60.4897 111.273 58.9475 110.726 57.4134 110.289C56.2454 110.959 55.089 111.678 53.955 112.441C48.1423 116.343 43.4597 120.608 39.6376 125.484C35.8365 130.331 32.9818 135.663 30.9242 141.757C33.2436 142.867 35.5464 143.737 37.8514 144.382Z" fill="#0A4C58"/>
<path d="M55.7235 177.618C62.2494 175.545 77.6846 170.226 88.574 158.075C88.574 158.075 88.574 158.075 88.5754 158.073C92.231 153.995 95.373 149.148 97.4943 143.393C107.244 116.943 86.531 103.338 63.9865 114.351C62.1036 115.271 60.2061 116.363 58.3138 117.633C38.5014 130.935 31.5214 150.515 35.7932 188.801C35.7934 188.801 47.0087 180.388 55.7235 177.618Z" fill="#419691"/>
<path d="M88.5755 158.072C92.2311 153.994 95.3731 149.148 97.4944 143.393C107.244 116.942 86.5311 103.338 63.9866 114.351C99.3385 115.14 88.6821 157.651 88.5755 158.072Z" fill="#0A4C58"/>
<path d="M35.0773 190.308C34.4653 190.119 34.0449 189.644 33.9813 189.071C31.9194 170.592 32.4579 156.652 35.6842 145.45C25.1763 142.09 14.8987 134.379 2.60182 120.669C2.20628 120.227 2.13343 119.614 2.41291 119.069C2.69196 118.524 3.27842 118.133 3.94237 118.051C4.04508 118.039 14.2842 116.746 19.9997 113.962C23.3056 112.351 28.445 110.037 34.8796 108.55C35.7586 108.347 36.6102 108.724 36.9201 109.408C36.9585 109.493 36.9887 109.582 37.0094 109.676C37.1981 110.526 36.5499 111.4 35.5623 111.628C29.5509 113.018 24.7072 115.2 21.5868 116.72C17.8389 118.546 12.6044 119.761 8.85489 120.461C12.3977 122.489 18.6706 125.727 27.0219 128.633C27.4629 128.787 27.7812 129.083 27.9434 129.441C28.1155 129.821 28.1111 130.27 27.89 130.693C27.4603 131.515 26.3747 131.924 25.4656 131.607C20.6473 129.93 16.519 128.16 13.1691 126.555C21.588 134.688 29.2311 139.792 36.6876 142.296C37.516 139.931 38.4792 137.686 39.5874 135.551C37.1796 135.032 34.7648 134.44 32.3919 133.776C31.4566 133.514 30.998 132.621 31.3667 131.781C31.7359 130.941 32.7935 130.472 33.7287 130.733C36.2155 131.429 38.7495 132.045 41.2704 132.574C45.1071 126.321 50.3506 121.044 57.2741 116.395C58.7685 115.392 60.2809 114.488 61.8016 113.684C61.5789 113.582 61.3556 113.48 61.1273 113.381C55.8712 111.1 50.1084 110.103 43.9993 110.418C42.9937 110.47 42.1908 109.8 42.2058 108.921C42.221 108.043 43.0481 107.288 44.0537 107.237C50.7848 106.89 57.1369 107.989 62.935 110.505C63.9103 110.929 64.844 111.377 65.7227 111.841C71.4415 109.474 77.1579 108.522 82.3601 109.052C87.741 104.663 93.7117 100.456 100.336 96.5621C101.198 96.0553 102.316 96.2274 102.833 96.9467C102.889 97.0239 102.935 97.1042 102.972 97.1866C103.283 97.8737 102.978 98.7146 102.208 99.1671C96.513 102.515 91.3153 106.102 86.5691 109.84C88.4404 110.362 90.2163 111.099 91.8644 112.066C95.4213 114.151 98.1172 117.152 99.7955 120.857C100.291 121.951 100.697 123.106 101.012 124.317C102.466 129.929 101.848 136.659 99.2235 143.779C96.8498 150.218 93.028 156.087 87.864 161.223C87.1757 161.907 86.0236 162.014 85.2904 161.46C84.5574 160.907 84.521 159.904 85.2088 159.219C90.0071 154.447 93.5589 148.993 95.7651 143.007C100.451 130.295 98.1785 119.733 89.6877 114.754C87.7657 113.627 85.6299 112.867 83.3464 112.459C80.1093 115.172 77.0989 117.951 74.2989 120.766C75.1988 122.841 76.4361 124.989 78.072 127.309C78.1241 127.383 78.1679 127.46 78.2036 127.539C78.5169 128.23 78.2043 129.077 77.4263 129.526C76.5596 130.027 75.4437 129.847 74.9338 129.124C73.5706 127.19 72.4654 125.359 71.5798 123.579C67.5926 127.827 64.0681 132.129 60.9561 136.38C60.9565 136.382 60.9575 136.384 60.9578 136.386C61.4243 138.473 62.565 140.299 63.773 142.232C64.1716 142.87 64.5839 143.53 64.9788 144.211C65.0027 144.252 65.0238 144.294 65.0429 144.336C65.3776 145.075 64.9959 145.971 64.1408 146.391C63.2372 146.834 62.147 146.577 61.706 145.817C61.3341 145.175 60.9343 144.535 60.5476 143.916C59.7754 142.68 58.9879 141.417 58.3598 140.051C55.9004 143.651 53.7311 147.192 51.8221 150.607C51.8276 150.639 51.8362 150.669 51.8396 150.701C52.1048 153.286 53.2127 155.973 55.0436 158.47C55.5671 159.186 55.2971 160.181 54.4388 160.694C53.5809 161.207 52.4603 161.043 51.936 160.328C50.7844 158.757 49.8805 157.109 49.2427 155.441C48.1288 157.632 47.1233 159.753 46.2184 161.783C45.8445 162.621 44.7842 163.086 43.8508 162.82C42.918 162.553 42.4638 161.658 42.8381 160.819C44.851 156.304 47.3483 151.352 50.4247 146.17C48.8587 146.18 46.9769 145.824 45.248 144.515C44.5158 143.961 44.4809 142.957 45.1699 142.274C45.859 141.59 47.0113 141.485 47.7437 142.039C49.7922 143.589 52.2415 142.795 52.5652 142.68C55.1352 138.622 58.063 134.455 61.3919 130.274C59.9116 130.222 58.1987 129.823 56.6145 128.624C55.8822 128.069 55.8473 127.066 56.5364 126.382C57.2254 125.699 58.3778 125.594 59.1101 126.148C61.2486 127.766 63.8261 126.829 63.9633 126.777C64.0948 126.726 64.2286 126.689 64.3623 126.665C68.5561 121.744 73.3247 116.841 78.7395 112.11C72.6185 112.229 65.8261 114.525 59.3531 118.871C49.5937 125.424 43.1689 133.506 39.6586 144.445C39.641 144.582 39.6046 144.72 39.5448 144.857C39.5306 144.889 39.5132 144.92 39.4966 144.952C36.766 153.756 35.8902 164.396 36.6567 177.549C37.4823 174.704 38.576 171.362 40.0215 167.604C40.3488 166.753 41.385 166.245 42.3357 166.469C42.8654 166.594 43.2568 166.919 43.4432 167.331C43.5913 167.658 43.6097 168.039 43.4649 168.416C40.6346 175.775 39.18 181.557 38.4758 184.943C42.6038 182.165 49.3737 177.983 55.2158 176.126C58.6872 175.022 69.2511 171.665 78.839 164.642C79.6377 164.057 80.7803 164.116 81.3913 164.773C82.0013 165.43 81.8507 166.438 81.0519 167.023C70.9218 174.443 59.8639 177.958 56.2304 179.113C47.9629 181.741 37.0268 189.897 36.9173 189.979C36.3944 190.37 35.6887 190.497 35.0773 190.308Z" fill="black"/>
</g>
<g clip-path="url(#clip1_509_705)">
<path d="M126.182 53.8468C112.631 48.0325 99.7561 47.6784 85.8888 51.6839C82.5864 52.6392 79.5413 53.8251 76.7748 55.2023C77.0219 53.7348 77.3633 52.2102 77.797 50.6318C78.3382 48.6671 78.9931 46.7982 79.7452 45.0248C87.4972 26.6241 105.359 17.9839 112.073 14.9571C119.437 11.6379 128.68 2.79248 128.68 2.79248C131.449 20.6466 131.575 34.3314 128.97 45.3208C128.252 48.3592 127.322 51.1911 126.182 53.8468Z" fill="#419691"/>
<path d="M126.182 53.8468C112.631 48.0326 99.756 47.6785 85.8887 51.684C82.5863 52.6392 79.5412 53.8251 76.7747 55.2024C77.0218 53.7348 77.3632 52.2103 77.7969 50.6318C78.3381 48.6672 78.993 46.7983 79.7451 45.0249C81.2484 44.4687 82.7894 43.963 84.3541 43.5126C92.366 41.1976 99.8619 40.2212 107.276 40.5296C114.648 40.8356 121.756 42.4054 128.97 45.321C128.252 48.3592 127.322 51.1912 126.182 53.8468Z" fill="#0A4C58"/>
<path d="M143.575 96.8192C136.724 101.248 120.135 111.393 100.628 111.893L100.625 111.892C94.0774 112.061 87.2037 111.143 80.2561 108.555C48.3236 96.6612 51.314 66.6064 78.5588 54.3601C80.8338 53.3371 83.2803 52.4372 85.8888 51.6837C113.198 43.7935 136.657 52.8184 169.004 87.1394C169.004 87.1394 152.725 90.9065 143.575 96.8192Z" fill="#419691"/>
<path d="M100.624 111.892C94.0771 112.061 87.2034 111.143 80.2558 108.556C48.3232 96.6612 51.3136 66.6064 78.5584 54.3601C52.6139 87.8767 100.153 111.658 100.624 111.892Z" fill="#0A4C58"/>
<path d="M170.945 87.6679C171.231 86.9486 171.108 86.1816 170.622 85.6676C155.01 69.1027 141.652 58.5541 128.81 52.6772C133.618 40.2375 134.209 24.5632 130.75 2.25486C130.639 1.5371 130.124 0.983043 129.406 0.811091C128.689 0.638725 127.884 0.875009 127.307 1.42759C127.217 1.51306 118.29 10.0154 111.39 13.126C107.399 14.9249 101.371 17.873 95.1339 22.6811C94.2818 23.3379 93.9891 24.4288 94.3909 25.2594C94.4407 25.3623 94.5012 25.4614 94.5726 25.5549C95.2196 26.4041 96.521 26.4939 97.4785 25.756C103.306 21.2642 108.988 18.4869 112.755 16.7888C117.28 14.7493 122.359 10.8417 125.838 7.90811C125.049 12.8119 123.324 21.2147 119.722 31.2886C119.532 31.8206 119.567 32.3511 119.777 32.7859C120 33.2471 120.421 33.5995 120.981 33.729C122.068 33.9801 123.268 33.2944 123.66 32.1978C125.738 26.3855 127.208 21.1411 128.245 16.7524C129.448 31.0315 128.423 42.1888 125.122 51.111C122.3 50.0069 119.487 49.1236 116.667 48.4623C118.003 45.8113 119.275 43.0953 120.448 40.3611C120.91 39.2831 120.427 38.1484 119.368 37.8256C118.309 37.5032 117.075 38.1155 116.612 39.193C115.383 42.0585 114.042 44.9041 112.632 47.6691C103.927 46.2824 95.0671 46.9783 85.5233 49.7351C83.4633 50.3303 81.4823 51.021 79.5873 51.7983C79.6607 51.5102 79.7349 51.2221 79.8149 50.9309C81.6618 44.2324 85.0841 38.0804 89.9871 32.6464C90.7944 31.7521 90.7774 30.4737 89.9499 29.7915C89.1223 29.1093 87.7973 29.2808 86.9904 30.1754C81.5884 36.163 77.8162 42.9443 75.7788 50.3332C75.4368 51.5768 75.1483 52.8005 74.916 53.9855C68.402 57.4308 63.2038 61.9947 59.7703 67.2549C51.6315 68.7819 43.2175 71.0028 34.6013 74.0796C33.4798 74.4801 32.7957 75.6571 33.0737 76.7083C33.1037 76.821 33.1435 76.9276 33.1919 77.0276C33.5955 77.8618 34.6075 78.2438 35.6088 77.8862C43.0165 75.2411 50.2717 73.2485 57.3264 71.7956C56.3987 73.9498 55.7439 76.1869 55.398 78.4862C54.6516 83.4487 55.405 88.3352 57.5814 92.8339C58.2235 94.1612 58.99 95.4555 59.8778 96.7072C63.9942 102.509 70.7133 107.268 79.3093 110.47C87.0831 113.365 95.4199 114.461 104.089 113.728C105.244 113.63 106.212 112.642 106.251 111.521C106.29 110.401 105.386 109.572 104.231 109.669C96.176 110.351 88.4281 109.332 81.2021 106.641C65.8552 100.925 57.757 90.4383 59.5382 78.5918C59.9417 75.9104 60.8473 73.3209 62.1911 70.8726C67.1543 70.0112 72.0086 69.4133 76.737 69.0396C77.9858 71.5215 79.0472 74.3748 79.9688 77.7363C79.998 77.8432 80.0362 77.9447 80.0825 78.0404C80.4887 78.8802 81.511 79.2602 82.516 78.8928C83.6356 78.4836 84.3101 77.3025 84.0227 76.2545C83.2551 73.4538 82.388 70.9743 81.4026 68.7396C88.3573 68.3961 95.0141 68.5269 101.313 69.0013C101.314 69.0034 101.315 69.0058 101.317 69.0077C102.904 71.0958 103.739 73.6044 104.624 76.2606C104.916 77.1373 105.218 78.044 105.553 78.9514C105.573 79.006 105.596 79.0587 105.62 79.1098C106.054 80.0071 107.175 80.362 108.21 79.899C109.303 79.4095 109.888 78.1915 109.514 77.1786C109.199 76.3244 108.906 75.4449 108.622 74.5943C108.056 72.896 107.477 71.1624 106.682 69.4953C111.883 70.0609 116.81 70.8491 121.423 71.7795C121.448 71.8097 121.47 71.8415 121.497 71.8705C123.699 74.166 125.359 77.3263 126.298 81.0095C126.567 82.0635 127.696 82.6012 128.82 82.2093C129.944 81.8177 130.637 80.645 130.369 79.5906C129.778 77.2736 128.93 75.127 127.861 73.2115C130.737 73.9116 133.466 74.657 136.035 75.4239C137.097 75.7408 138.328 75.1223 138.785 74.0429C139.242 72.9642 138.752 71.8317 137.69 71.5148C131.977 69.8094 125.491 68.2074 118.356 66.9628C119.546 65.5134 120.635 63.48 120.724 60.8342C120.762 59.7136 119.856 58.8858 118.701 58.9851C117.546 59.0844 116.578 60.0733 116.54 61.1938C116.435 64.3285 113.849 65.9777 113.497 66.1876C107.788 65.3622 101.707 64.7837 95.3102 64.5668C96.3796 63.1488 97.3008 61.2383 97.3823 58.814C97.4199 57.6933 96.5139 56.8653 95.3589 56.9648C94.2039 57.0641 93.2366 58.053 93.1988 59.1735C93.0887 62.4459 90.2726 64.101 90.1211 64.1876C89.974 64.2692 89.8394 64.365 89.716 64.4702C81.9792 64.4715 73.8253 65.0221 65.3434 66.3098C70.0729 60.709 77.3319 56.2094 86.2548 53.6319C99.7075 49.7457 112.064 50.1738 124.877 55.5785C125.017 55.6704 125.173 55.7461 125.345 55.7988C125.386 55.8115 125.428 55.8199 125.47 55.8294C135.71 60.2669 146.257 67.8859 157.899 79.0244C154.633 77.5375 150.702 75.9063 146.12 74.2721C145.082 73.9023 143.828 74.4635 143.319 75.5258C143.035 76.1176 143.042 76.7399 143.284 77.2395C143.476 77.6365 143.816 77.9557 144.276 78.1196C153.248 81.3191 159.718 84.5487 163.396 86.5779C157.7 88.2162 148.706 91.2004 142.572 95.164C138.927 97.5191 127.836 104.686 114.075 108.04C112.929 108.32 112.122 109.43 112.271 110.519C112.421 111.608 113.471 112.266 114.618 111.987C129.156 108.443 140.766 100.941 144.581 98.4754C153.261 92.8662 169.092 89.156 169.251 89.1192C170.009 88.943 170.659 88.3867 170.945 87.6679Z" fill="black"/>
</g>
<g clip-path="url(#clip2_509_705)">
<path d="M192.319 340.198C204.948 337.342 214.748 331.213 223.437 321.714C225.506 319.45 227.284 317.162 228.771 314.885C229.21 315.977 229.603 317.152 229.949 318.41C230.379 319.975 230.683 321.533 230.873 323.077C232.889 339.064 223.177 353.6 219.433 358.918C215.325 364.75 212.16 375.162 212.16 375.162C202.492 364.735 196.577 355.756 193.855 347.209C193.102 344.846 192.594 342.516 192.319 340.198Z" fill="#0A4C58"/>
<path d="M192.319 340.198C204.948 337.342 214.748 331.213 223.437 321.713C225.506 319.45 227.284 317.162 228.771 314.885C229.21 315.976 229.603 317.152 229.949 318.41C230.379 319.975 230.683 321.533 230.874 323.077C229.983 324.187 229.044 325.283 228.062 326.353C223.042 331.843 217.84 336.192 212.152 339.653C206.497 343.094 200.502 345.569 193.855 347.209C193.102 344.846 192.594 342.516 192.319 340.198Z" fill="#0A4C58"/>
<path d="M161.008 320.404C164.259 314.092 172.378 299.191 186.784 289.22C186.784 289.22 186.784 289.22 186.787 289.219C191.622 285.872 197.164 283.081 203.472 281.357C232.462 273.434 243.003 294.768 227.792 316.323C226.522 318.123 225.072 319.927 223.437 321.714C206.326 340.423 184.906 346.054 146.067 339.366C146.067 339.366 156.665 328.832 161.008 320.404Z" fill="#0A4C58"/>
<path d="M186.788 289.219C191.623 285.872 197.165 283.081 203.472 281.357C232.463 273.434 243.004 294.768 227.793 316.323C232.983 281.358 187.241 289.141 186.788 289.219Z" fill="#0A4C58"/>
<path d="M144.388 339.976C144.479 340.593 144.898 341.038 145.48 341.138C164.226 344.366 178.723 344.733 190.847 342.269C192.534 352.864 198.757 363.511 210.837 376.54C211.226 376.959 211.848 377.071 212.458 376.83C213.069 376.589 213.572 376.035 213.77 375.385C213.8 375.284 216.875 365.255 220.723 359.79C222.95 356.629 226.213 351.702 228.843 345.443C229.202 344.588 228.958 343.723 228.303 343.373C228.222 343.33 228.135 343.294 228.041 343.267C227.195 343.026 226.182 343.61 225.778 344.571C223.321 350.418 220.244 355.061 218.142 358.045C215.619 361.629 213.474 366.72 212.114 370.378C210.62 366.748 208.339 360.344 206.754 351.909C206.67 351.463 206.419 351.13 206.076 350.947C205.713 350.752 205.247 350.727 204.773 350.919C203.851 351.29 203.244 352.336 203.416 353.254C204.331 358.121 205.46 362.312 206.549 365.724C199.575 356.885 195.598 349.007 194.277 341.482C196.862 340.816 199.345 340.01 201.74 339.053C201.867 341.464 202.069 343.887 202.352 346.274C202.464 347.214 203.309 347.725 204.24 347.415C205.171 347.104 205.835 346.09 205.723 345.15C205.426 342.649 205.221 340.106 205.102 337.583C212.216 334.197 218.56 329.358 224.54 322.82C225.831 321.409 227.021 319.974 228.111 318.524C228.179 318.75 228.246 318.977 228.309 319.209C229.774 324.547 229.826 330.303 228.462 336.316C228.237 337.306 228.794 338.142 229.704 338.184C230.615 338.226 231.535 337.458 231.759 336.468C233.261 329.842 233.204 323.498 231.589 317.609C231.316 316.619 231.012 315.668 230.682 314.77C234.099 309.275 236.053 303.691 236.39 298.519C241.84 293.487 247.201 287.862 252.35 281.571C253.02 280.752 253.033 279.637 252.377 279.079C252.307 279.02 252.232 278.969 252.153 278.927C251.496 278.575 250.575 278.823 249.976 279.554C245.549 284.963 240.959 289.865 236.29 294.311C236.069 292.429 235.609 290.628 234.89 288.938C233.339 285.29 230.696 282.434 227.152 280.538C226.106 279.978 224.981 279.502 223.783 279.114C218.231 277.315 211.171 277.492 203.367 279.625C196.309 281.554 189.595 284.95 183.411 289.719C182.587 290.354 182.281 291.485 182.728 292.245C183.175 293.005 184.206 293.105 185.03 292.47C190.777 288.039 197.017 284.883 203.577 283.09C217.51 279.282 228.039 282.207 231.742 290.914C232.58 292.885 233.003 295.043 233.037 297.325C229.683 300.347 226.3 303.141 222.915 305.725C220.923 304.702 218.914 303.342 216.794 301.576C216.727 301.52 216.655 301.472 216.58 301.432C215.918 301.077 214.99 301.332 214.393 302.071C213.728 302.895 213.725 304.008 214.386 304.559C216.152 306.03 217.857 307.239 219.546 308.229C214.479 311.893 209.435 315.096 204.513 317.895C204.511 317.895 204.509 317.894 204.507 317.893C202.43 317.298 200.736 316.054 198.944 314.736C198.352 314.301 197.74 313.851 197.103 313.417C197.065 313.391 197.025 313.368 196.985 313.346C196.278 312.968 195.288 313.287 194.709 314.104C194.097 314.968 194.178 316.062 194.889 316.546C195.488 316.955 196.082 317.391 196.656 317.813C197.802 318.655 198.973 319.514 200.278 320.223C196.14 322.419 192.112 324.334 188.259 325.999C188.227 325.991 188.198 325.981 188.165 325.975C185.539 325.547 182.95 324.279 180.68 322.31C180.03 321.747 178.956 321.949 178.28 322.764C177.604 323.578 177.583 324.695 178.233 325.259C179.661 326.498 181.21 327.497 182.825 328.234C180.372 329.193 178.01 330.05 175.758 330.812C174.828 331.128 174.168 332.145 174.285 333.084C174.401 334.022 175.249 334.529 176.18 334.213C181.187 332.516 186.73 330.369 192.607 327.665C192.331 329.211 192.379 331.092 193.438 332.884C193.886 333.643 194.917 333.742 195.741 333.106C196.564 332.469 196.869 331.338 196.421 330.579C195.166 328.456 196.403 326.088 196.577 325.776C201.208 323.5 206.011 320.877 210.897 317.859C210.699 319.324 210.821 321.041 211.791 322.683C212.239 323.442 213.27 323.541 214.094 322.905C214.917 322.269 215.221 321.137 214.773 320.378C213.464 318.162 214.871 315.677 214.947 315.545C215.023 315.418 215.083 315.288 215.131 315.158C220.929 311.333 226.806 306.94 232.615 301.897C231.452 307.935 227.925 314.495 222.334 320.608C213.905 329.823 204.462 335.648 192.561 338.409C192.417 338.418 192.268 338.445 192.116 338.495C192.08 338.507 192.045 338.522 192.01 338.536C182.448 340.665 171.303 340.844 157.841 339.239C160.921 338.607 164.561 337.742 168.69 336.557C169.625 336.289 170.326 335.298 170.256 334.345C170.217 333.814 169.947 333.406 169.553 333.195C169.24 333.028 168.85 332.985 168.436 333.104C160.35 335.425 154.128 336.489 150.509 336.966C154.081 333.068 159.553 326.651 162.464 321.001C164.194 317.644 169.458 307.428 178.345 298.411C179.085 297.66 179.218 296.528 178.642 295.882C178.067 295.237 177 295.321 176.26 296.072C166.871 305.598 161.361 316.293 159.55 319.807C155.43 327.803 145.143 338.077 145.04 338.18C144.547 338.671 144.296 339.36 144.388 339.976Z" fill="black"/>
</g>
<g clip-path="url(#clip3_509_705)">
<path d="M140.303 282.852C143.864 275.19 149.33 269.77 156.985 265.508C158.809 264.494 160.613 263.668 162.373 263.026C161.674 262.6 160.911 262.192 160.087 261.803C159.059 261.319 158.021 260.917 156.979 260.588C146.189 257.161 134.926 261.399 130.782 263.071C126.237 264.906 118.646 265.526 118.646 265.526C124.633 273.083 130.091 278.054 135.653 280.933C137.19 281.73 138.736 282.366 140.303 282.852Z" fill="#0A4C58"/>
<path d="M140.303 282.852C143.864 275.19 149.33 269.77 156.985 265.508C158.809 264.494 160.613 263.668 162.373 263.026C161.674 262.6 160.911 262.192 160.087 261.803C159.059 261.319 158.021 260.917 156.979 260.588C156.1 261.006 155.225 261.458 154.362 261.94C149.939 264.401 146.28 267.132 143.174 270.292C140.086 273.433 137.622 276.919 135.653 280.934C137.19 281.73 138.736 282.366 140.303 282.852Z" fill="#0A4C58"/>
<path d="M150.038 305.451C154.807 304.226 166.121 301.052 174.821 293.212C174.821 293.212 174.821 293.212 174.822 293.21C177.742 290.579 180.367 287.423 182.351 283.636C191.47 266.232 178.059 256.657 161.257 263.456C159.853 264.024 158.425 264.706 156.985 265.508C141.909 273.9 135.325 286.789 135.06 312.426C135.06 312.426 143.67 307.087 150.038 305.451Z" fill="#419691"/>
<path d="M174.822 293.21C177.742 290.579 180.367 287.423 182.351 283.636C191.471 266.231 178.06 256.657 161.257 263.456C186.062 264.838 174.933 292.932 174.822 293.21Z" fill="#419691"/>
<path d="M134.428 313.414C134.013 313.273 133.758 312.947 133.762 312.562C133.89 300.189 135.46 290.905 138.687 283.512C131.581 281.017 125.008 275.626 117.528 266.184C117.287 265.88 117.288 265.469 117.532 265.112C117.774 264.756 118.22 264.51 118.695 264.471C118.768 264.465 126.082 263.851 130.342 262.132C132.805 261.138 136.619 259.719 141.273 258.883C141.909 258.769 142.476 259.041 142.636 259.505C142.655 259.562 142.669 259.623 142.675 259.686C142.736 260.257 142.205 260.824 141.491 260.953C137.142 261.734 133.548 263.072 131.223 264.01C128.43 265.137 124.643 265.821 121.945 266.197C124.265 267.635 128.401 269.946 134.029 272.087C134.326 272.2 134.525 272.405 134.608 272.648C134.697 272.905 134.655 273.205 134.464 273.482C134.091 274.019 133.292 274.266 132.68 274.033C129.433 272.798 126.68 271.517 124.46 270.366C129.688 275.993 134.63 279.583 139.662 281.433C140.447 279.875 141.317 278.402 142.279 277.004C140.629 276.6 138.981 276.147 137.368 275.647C136.732 275.449 136.486 274.842 136.817 274.291C137.149 273.74 137.933 273.453 138.568 273.65C140.258 274.174 141.989 274.646 143.717 275.06C146.951 270.983 151.091 267.59 156.359 264.657C157.496 264.024 158.638 263.458 159.776 262.958C159.628 262.885 159.48 262.812 159.328 262.74C155.825 261.091 151.855 260.287 147.53 260.349C146.818 260.36 146.311 259.893 146.396 259.308C146.482 258.722 147.128 258.239 147.84 258.229C152.606 258.16 156.981 259.047 160.845 260.866C161.495 261.172 162.114 261.493 162.693 261.824C166.919 260.384 171.022 259.888 174.637 260.367C178.798 257.57 183.358 254.909 188.351 252.472C189.001 252.155 189.773 252.297 190.076 252.789C190.108 252.842 190.134 252.896 190.153 252.952C190.313 253.418 190.026 253.972 189.446 254.255C185.153 256.349 181.189 258.616 177.531 260.994C178.803 261.387 179.989 261.922 181.066 262.607C183.391 264.084 185.031 266.15 185.895 268.662C186.15 269.403 186.338 270.184 186.455 270.999C186.999 274.777 185.99 279.25 183.535 283.935C181.315 288.172 178.124 291.994 174.052 295.294C173.509 295.734 172.69 295.777 172.221 295.39C171.753 295.004 171.813 294.333 172.355 293.894C176.139 290.827 179.104 287.275 181.167 283.337C185.55 274.972 184.854 267.873 179.305 264.347C178.049 263.549 176.611 262.99 175.04 262.663C172.53 264.394 170.175 266.175 167.964 267.984C168.42 269.39 169.107 270.852 170.06 272.439C170.09 272.49 170.115 272.542 170.133 272.595C170.294 273.064 170.002 273.621 169.416 273.902C168.764 274.216 167.994 274.068 167.697 273.573C166.903 272.251 166.282 271.003 165.811 269.795C162.643 272.531 159.795 275.315 157.243 278.075C157.243 278.076 157.243 278.077 157.243 278.079C157.393 279.482 158.04 280.727 158.724 282.046C158.95 282.481 159.184 282.931 159.404 283.395C159.417 283.423 159.428 283.451 159.438 283.48C159.611 283.981 159.265 284.569 158.628 284.828C157.954 285.102 157.209 284.904 156.964 284.386C156.757 283.95 156.531 283.513 156.311 283.091C155.874 282.247 155.427 281.386 155.102 280.46C153.064 282.802 151.235 285.111 149.601 287.342C149.602 287.363 149.605 287.383 149.605 287.405C149.571 289.135 150.121 290.954 151.195 292.664C151.503 293.154 151.228 293.811 150.58 294.132C149.933 294.454 149.158 294.317 148.85 293.828C148.174 292.752 147.679 291.631 147.373 290.504C146.402 291.938 145.513 293.328 144.703 294.66C144.368 295.21 143.583 295.494 142.949 295.294C142.315 295.094 142.072 294.486 142.407 293.935C144.209 290.973 146.389 287.73 148.996 284.349C147.894 284.318 146.6 284.034 145.496 283.12C145.028 282.732 145.089 282.062 145.632 281.623C146.175 281.184 146.995 281.142 147.463 281.529C148.772 282.612 150.563 282.142 150.801 282.073C152.956 279.429 155.372 276.721 158.071 274.013C157.034 273.943 155.863 273.635 154.851 272.797C154.383 272.409 154.444 271.739 154.987 271.3C155.53 270.861 156.35 270.819 156.818 271.206C158.184 272.337 160.078 271.774 160.179 271.743C160.276 271.712 160.373 271.691 160.469 271.678C163.84 268.497 167.614 265.343 171.828 262.319C167.511 262.25 162.536 263.617 157.611 266.359C150.184 270.493 144.973 275.727 141.569 282.938C141.545 283.029 141.508 283.12 141.454 283.21C141.441 283.231 141.426 283.251 141.412 283.272C138.738 289.077 137.213 296.152 136.629 304.943C137.453 303.066 138.508 300.863 139.846 298.392C140.149 297.832 140.921 297.518 141.571 297.691C141.933 297.787 142.181 298.014 142.277 298.293C142.353 298.514 142.333 298.769 142.199 299.017C139.579 303.856 138.062 307.677 137.277 309.919C140.419 308.165 145.539 305.54 149.808 304.443C152.345 303.791 160.064 301.808 167.41 297.356C168.022 296.985 168.821 297.052 169.195 297.505C169.568 297.958 169.376 298.627 168.764 298.997C161.002 303.701 152.922 305.777 150.267 306.46C144.225 308.012 135.834 313.187 135.75 313.239C135.349 313.488 134.842 313.555 134.428 313.414Z" fill="black"/>
</g>
<g clip-path="url(#clip4_509_705)">
<path d="M155.055 205.527C167.554 208.512 176.716 214.532 184.284 223.72C186.085 225.909 187.586 228.115 188.792 230.304C189.39 229.28 189.952 228.175 190.477 226.993C191.131 225.52 191.654 224.052 192.06 222.595C196.308 207.502 188.386 193.524 185.293 188.406C181.9 182.792 180.096 172.864 180.096 172.864C168.799 182.521 161.532 190.891 157.584 198.923C156.491 201.143 155.653 203.338 155.055 205.527Z" fill="#419691"/>
<path d="M155.055 205.527C167.553 208.512 176.716 214.532 184.283 223.72C186.085 225.909 187.586 228.115 188.792 230.304C189.39 229.28 189.951 228.175 190.477 226.993C191.13 225.52 191.654 224.052 192.06 222.595C191.304 221.524 190.495 220.465 189.64 219.43C185.268 214.121 180.554 209.887 175.223 206.484C169.922 203.1 164.143 200.623 157.584 198.923C156.491 201.143 155.653 203.338 155.055 205.527Z" fill="#0A4C58"/>
<path d="M120.386 223.572C122.84 229.62 129.085 243.909 142.422 253.67L142.425 253.671C146.902 256.948 152.176 259.713 158.377 261.485C186.881 269.632 200.562 249.667 187.99 228.921C186.94 227.188 185.707 225.448 184.283 223.72C169.382 205.625 148.291 199.817 107.734 205.286C107.734 205.286 117.108 215.495 120.386 223.572Z" fill="#419691"/>
<path d="M142.426 253.671C146.902 256.948 152.176 259.713 158.378 261.486C186.881 269.632 200.562 249.668 187.99 228.921C188.498 262.141 142.878 253.755 142.426 253.671Z" fill="#0A4C58"/>
<path d="M106.104 204.671C106.282 204.089 106.77 203.676 107.378 203.595C126.953 200.955 141.8 200.93 153.837 203.533C157.01 193.539 164.82 183.597 178.934 171.529C179.388 171.141 180.038 171.05 180.628 171.291C181.219 171.532 181.656 172.068 181.769 172.688C181.786 172.784 183.55 182.348 186.73 187.608C188.569 190.651 191.225 195.388 193.051 201.372C193.301 202.19 192.933 203.004 192.217 203.321C192.128 203.36 192.034 203.392 191.935 203.415C191.039 203.624 190.084 203.049 189.804 202.131C188.097 196.54 185.592 192.075 183.856 189.203C181.771 185.754 180.28 180.886 179.393 177.392C177.371 180.796 174.166 186.808 171.392 194.76C171.246 195.18 170.944 195.49 170.569 195.656C170.171 195.832 169.693 195.845 169.235 195.653C168.345 195.281 167.868 194.277 168.17 193.412C169.77 188.824 171.497 184.881 173.076 181.675C164.746 189.889 159.608 197.259 157.229 204.355C159.776 205.042 162.201 205.861 164.514 206.82C164.973 204.54 165.511 202.25 166.127 199.997C166.37 199.109 167.303 198.645 168.211 198.959C169.118 199.273 169.657 200.249 169.414 201.136C168.769 203.498 168.21 205.9 167.744 208.287C174.54 211.651 180.352 216.373 185.56 222.696C186.685 224.061 187.703 225.447 188.617 226.844C188.717 226.631 188.816 226.417 188.913 226.199C191.139 221.178 191.98 215.729 191.412 210.006C191.319 209.064 192.001 208.284 192.936 208.265C193.871 208.246 194.705 208.993 194.798 209.936C195.424 216.242 194.496 222.248 192.041 227.787C191.627 228.719 191.186 229.612 190.726 230.455C193.461 235.734 194.691 241.065 194.326 245.969C199.199 250.854 203.901 256.299 208.294 262.37C208.866 263.16 208.726 264.217 207.98 264.73C207.9 264.785 207.817 264.831 207.73 264.869C207.011 265.188 206.105 264.932 205.595 264.227C201.818 259.008 197.804 254.264 193.648 249.951C193.165 251.727 192.448 253.423 191.483 255.007C189.4 258.426 186.311 261.071 182.434 262.788C181.29 263.295 180.077 263.72 178.801 264.061C172.887 265.641 165.706 265.317 158.033 263.124C151.094 261.14 144.707 257.776 139.048 253.123C138.294 252.503 138.136 251.425 138.697 250.716C139.257 250.006 140.323 249.934 141.077 250.554C146.336 254.877 152.272 258.004 158.722 259.847C172.421 263.763 183.568 261.227 188.54 253.066C189.666 251.218 190.393 249.184 190.74 247.025C187.732 244.089 184.661 241.368 181.56 238.847C179.387 239.771 177.15 241.014 174.745 242.638C174.668 242.69 174.588 242.734 174.506 242.771C173.782 243.091 172.87 242.83 172.362 242.116C171.796 241.322 171.945 240.267 172.695 239.761C174.7 238.408 176.605 237.3 178.464 236.401C173.795 232.819 169.086 229.674 164.445 226.914C164.443 226.915 164.441 226.916 164.439 226.916C162.237 227.433 160.339 228.574 158.328 229.782C157.665 230.18 156.979 230.592 156.269 230.989C156.227 231.013 156.183 231.035 156.139 231.054C155.366 231.396 154.398 231.072 153.92 230.285C153.414 229.454 153.646 228.421 154.438 227.978C155.105 227.604 155.771 227.204 156.415 226.818C157.7 226.046 159.013 225.258 160.442 224.616C156.519 222.444 152.671 220.543 148.966 218.88C148.933 218.887 148.901 218.896 148.867 218.9C146.128 219.248 143.312 220.39 140.726 222.204C139.985 222.723 138.916 222.507 138.338 221.721C137.759 220.935 137.891 219.877 138.632 219.357C140.259 218.216 141.977 217.305 143.726 216.643C141.354 215.68 139.06 214.817 136.867 214.045C135.96 213.726 135.426 212.748 135.674 211.861C135.921 210.976 136.856 210.515 137.763 210.834C142.641 212.552 148.004 214.708 153.632 217.399C153.562 215.93 153.869 214.149 155.195 212.476C155.757 211.768 156.823 211.697 157.576 212.318C158.329 212.938 158.485 214.016 157.924 214.725C156.353 216.707 157.291 218.977 157.426 219.276C161.84 221.535 166.383 224.125 170.956 227.091C170.955 225.699 171.315 224.076 172.53 222.543C173.091 221.834 174.157 221.763 174.91 222.384C175.664 223.005 175.819 224.083 175.258 224.792C173.618 226.861 174.713 229.245 174.773 229.372C174.833 229.493 174.877 229.618 174.908 229.742C180.301 233.492 185.697 237.783 190.936 242.686C190.576 236.944 187.876 230.654 183.006 224.743C175.665 215.829 166.825 210.105 155.057 207.226C154.911 207.215 154.762 207.186 154.615 207.135C154.579 207.123 154.546 207.107 154.512 207.093C145.044 204.865 133.694 204.448 119.734 205.668C122.791 206.335 126.387 207.234 130.44 208.448C131.357 208.723 131.937 209.677 131.735 210.578C131.622 211.08 131.291 211.46 130.86 211.65C130.518 211.802 130.113 211.834 129.707 211.712C121.773 209.335 115.568 208.19 111.939 207.657C115.051 211.427 119.757 217.624 121.954 223.038C123.26 226.255 127.233 236.046 135.068 244.78C135.72 245.507 135.701 246.582 135.025 247.181C134.35 247.779 133.272 247.676 132.62 246.948C124.342 237.72 120.183 227.472 118.816 224.105C115.706 216.442 106.615 206.486 106.524 206.386C106.087 205.91 105.926 205.252 106.104 204.671Z" fill="black"/>
</g>
<g clip-path="url(#clip5_509_705)">
<path d="M207.83 267.136C214.786 256.564 223.633 250.222 235.06 246.534C237.782 245.656 240.424 245.066 242.954 244.744C242.146 243.81 241.248 242.879 240.261 241.954C239.033 240.803 237.766 239.774 236.473 238.859C223.09 229.346 206.864 231.604 200.861 232.611C194.276 233.715 183.987 231.751 183.987 231.751C189.779 245.847 195.613 255.709 202.191 262.348C204.008 264.184 205.883 265.773 207.83 267.136Z" fill="#0A4C58"/>
<path d="M207.83 267.136C214.786 256.564 223.633 250.222 235.06 246.534C237.782 245.656 240.424 245.066 242.954 244.744C242.146 243.81 241.248 242.879 240.261 241.954C239.033 240.803 237.766 239.774 236.473 238.859C235.181 239.172 233.885 239.538 232.596 239.956C225.994 242.086 220.331 244.931 215.282 248.658C210.261 252.363 205.972 256.848 202.191 262.348C204.008 264.184 205.883 265.773 207.83 267.136Z" fill="#0A4C58"/>
<path d="M214.271 306.138C220.976 306.07 236.964 305.491 250.816 296.626C250.816 296.626 250.816 296.626 250.818 296.624C255.468 293.649 259.876 289.741 263.613 284.603C280.787 260.984 265.688 240.873 241.342 244.984C239.309 245.327 237.21 245.84 235.06 246.534C212.555 253.796 200.063 271.352 192.305 311.229C192.305 311.229 205.315 306.229 214.271 306.138Z" fill="#419691"/>
<path d="M250.819 296.624C255.469 293.649 259.876 289.741 263.613 284.602C280.787 260.984 265.688 240.872 241.343 244.984C273.985 256.721 251.047 296.233 250.819 296.624Z" fill="#0A4C58"/>
<path d="M191.177 312.525C190.666 312.145 190.42 311.538 190.537 310.94C194.281 291.694 199.053 277.822 205.487 267.541C196.742 260.904 189.544 249.958 182.307 232.345C182.074 231.778 182.194 231.138 182.621 230.675C183.048 230.213 183.713 230.001 184.356 230.124C184.455 230.143 194.375 232.011 200.545 230.976C204.114 230.377 209.604 229.639 216.045 230.133C216.925 230.2 217.601 230.843 217.68 231.628C217.69 231.725 217.69 231.825 217.681 231.926C217.596 232.84 216.725 233.52 215.737 233.444C209.719 232.982 204.545 233.68 201.176 234.245C197.131 234.924 191.889 234.527 188.187 234.071C190.861 237.21 195.704 242.413 202.582 247.925C202.945 248.216 203.15 248.612 203.192 249.023C203.235 249.459 203.093 249.91 202.758 250.268C202.107 250.962 200.972 251.038 200.223 250.438C196.255 247.257 192.957 244.196 190.333 241.543C195.672 252.339 201.218 259.846 207.386 264.675C208.882 262.55 210.466 260.587 212.151 258.78C210.07 257.513 208.005 256.169 206.001 254.766C205.211 254.212 205.059 253.171 205.659 252.439C206.26 251.707 207.387 251.562 208.177 252.115C210.277 253.586 212.445 254.99 214.628 256.304C220.113 251.194 226.607 247.503 234.472 244.965C236.17 244.417 237.854 243.975 239.515 243.636C239.339 243.464 239.162 243.293 238.98 243.122C234.79 239.198 229.735 236.41 223.956 234.837C223.004 234.578 222.463 233.654 222.746 232.774C223.029 231.894 224.03 231.391 224.981 231.65C231.349 233.384 236.92 236.457 241.543 240.786C242.32 241.515 243.051 242.255 243.727 242.994C249.771 242.381 255.38 243.192 260.057 245.336C266.408 242.581 273.25 240.193 280.605 238.322C281.562 238.079 282.55 238.598 282.811 239.483C282.839 239.578 282.857 239.673 282.866 239.767C282.945 240.556 282.403 241.308 281.548 241.525C275.225 243.133 269.291 245.137 263.731 247.432C265.312 248.536 266.738 249.829 267.975 251.312C270.644 254.514 272.233 258.37 272.658 262.621C272.784 263.875 272.808 265.164 272.73 266.481C272.363 272.582 269.726 279.168 265.103 285.526C260.922 291.276 255.569 296.003 249.191 299.576C248.341 300.052 247.237 299.803 246.725 299.019C246.212 298.235 246.486 297.213 247.335 296.737C253.261 293.416 258.236 289.023 262.122 283.678C270.376 272.328 271.499 260.988 265.126 253.346C263.684 251.616 261.93 250.19 259.931 249.071C256.089 250.801 252.437 252.668 248.969 254.637C249.171 257.005 249.664 259.55 250.474 262.394C250.5 262.484 250.517 262.575 250.526 262.665C250.606 263.459 250.056 264.214 249.194 264.426C248.235 264.663 247.252 264.136 246.999 263.249C246.324 260.88 245.856 258.694 245.578 256.628C240.568 259.671 235.971 262.912 231.774 266.23C231.773 266.232 231.774 266.234 231.773 266.237C231.568 268.482 232.07 270.674 232.601 272.995C232.776 273.761 232.957 274.553 233.116 275.361C233.126 275.41 233.133 275.459 233.137 275.507C233.222 276.355 232.593 277.139 231.669 277.296C230.692 277.463 229.757 276.867 229.58 275.965C229.43 275.204 229.255 274.435 229.085 273.692C228.745 272.208 228.4 270.693 228.234 269.123C224.843 271.987 221.74 274.881 218.918 277.729C218.913 277.763 218.912 277.796 218.905 277.829C218.36 280.514 218.567 283.563 219.505 286.645C219.773 287.527 219.217 288.446 218.261 288.697C217.306 288.948 216.314 288.436 216.045 287.554C215.456 285.615 215.12 283.676 215.037 281.799C213.33 283.66 211.745 285.485 210.281 287.248C209.676 287.977 208.548 288.117 207.761 287.56C206.975 287.003 206.827 285.961 207.432 285.232C210.688 281.308 214.528 277.094 218.978 272.829C217.518 272.354 215.877 271.412 214.669 269.559C214.158 268.774 214.433 267.753 215.284 267.278C216.134 266.803 217.238 267.054 217.75 267.839C219.18 270.034 221.702 269.992 222.038 269.976C225.672 266.685 229.672 263.396 234.05 260.216C232.689 259.706 231.218 258.773 230.112 257.075C229.6 256.29 229.875 255.269 230.726 254.794C231.576 254.319 232.68 254.57 233.192 255.354C234.685 257.646 237.37 257.5 237.513 257.49C237.652 257.479 237.787 257.484 237.919 257.501C243.328 253.844 249.266 250.382 255.752 247.294C250.022 245.519 243 245.729 235.647 248.102C224.561 251.68 216.109 257.829 209.492 267.759C209.433 267.891 209.357 268.019 209.26 268.138C209.236 268.166 209.211 268.192 209.186 268.219C203.948 276.239 199.873 286.683 196.556 300.166C198.196 297.556 200.237 294.53 202.733 291.192C203.298 290.437 204.418 290.246 205.234 290.766C205.688 291.055 205.952 291.505 206 291.977C206.037 292.352 205.937 292.741 205.687 293.076C200.8 299.61 197.675 304.983 195.982 308.175C200.674 306.655 208.252 304.539 214.256 304.478C217.823 304.441 228.678 304.33 239.749 300.225C240.671 299.884 241.716 300.297 242.083 301.148C242.449 301.998 242 302.966 241.078 303.308C229.381 307.645 218.018 307.761 214.284 307.799C205.789 307.887 193.117 312.715 192.99 312.764C192.383 312.996 191.688 312.905 191.177 312.525Z" fill="black"/>
</g>
<g clip-path="url(#clip6_509_705)">
<path d="M207.798 196.376C218.619 189.743 229.92 187.324 242.958 188.012C246.063 188.177 248.986 188.558 251.701 189.129C251.193 188.069 250.591 186.981 249.897 185.868C249.031 184.483 248.084 183.189 247.07 181.984C236.595 169.463 219.116 165.963 212.589 164.813C205.431 163.552 195.523 158.456 195.523 158.456C196.599 172.326 199.186 182.624 203.654 190.44C204.887 192.601 206.267 194.572 207.798 196.376Z" fill="#0A4C58"/>
<path d="M207.798 196.376C218.62 189.743 229.921 187.324 242.958 188.012C246.063 188.177 248.986 188.558 251.701 189.129C251.193 188.069 250.591 186.981 249.897 185.868C249.032 184.483 248.085 183.19 247.071 181.984C245.633 181.817 244.173 181.695 242.702 181.619C235.169 181.221 228.356 181.742 221.869 183.213C215.418 184.676 209.45 187.044 203.654 190.44C204.888 192.601 206.267 194.572 207.798 196.376Z" fill="#0A4C58"/>
<path d="M200.911 231.554C207.835 233.733 224.488 238.576 241.814 235.689C241.814 235.689 241.814 235.689 241.817 235.688C247.633 234.72 253.523 232.88 259.148 229.775C285.005 215.502 276.437 193.434 249.959 188.795C247.748 188.408 245.41 188.141 242.958 188.012C217.283 186.655 198.344 197.356 176.544 228.539C176.544 228.539 191.664 228.644 200.911 231.554Z" fill="#419691"/>
<path d="M241.818 235.688C247.633 234.72 253.523 232.88 259.149 229.775C285.005 215.502 276.437 193.434 249.96 188.795C279.483 209.623 242.188 235.433 241.818 235.688Z" fill="#0A4C58"/>
<path d="M174.934 229.26C174.54 228.768 174.497 228.171 174.824 227.704C185.346 212.654 195.064 202.498 205.246 195.937C198.547 187.4 194.933 175.729 193.589 158.399C193.546 157.841 193.891 157.339 194.491 157.09C195.09 156.841 195.848 156.883 196.467 157.202C196.563 157.251 206.124 162.142 212.831 163.324C216.711 164.007 222.616 165.212 229.073 167.78C229.955 168.13 230.429 168.9 230.238 169.591C230.214 169.677 230.18 169.761 230.135 169.844C229.731 170.59 228.6 170.875 227.609 170.481C221.576 168.082 216.01 166.947 212.348 166.303C207.949 165.528 202.694 163.443 199.042 161.822C200.706 165.373 203.887 171.394 209.054 178.356C209.327 178.724 209.401 179.128 209.301 179.489C209.195 179.873 208.893 180.208 208.424 180.399C207.513 180.77 206.319 180.455 205.756 179.697C202.775 175.68 200.442 171.988 198.661 168.866C200.414 179.79 203.52 187.996 208.194 194.144C210.47 192.843 212.779 191.709 215.14 190.741C213.437 188.974 211.778 187.147 210.202 185.29C209.582 184.558 209.785 183.625 210.656 183.205C211.528 182.786 212.739 183.04 213.36 183.771C215.011 185.717 216.756 187.63 218.547 189.47C225.962 186.973 233.924 186.013 242.896 186.487C244.833 186.589 246.719 186.777 248.546 187.043C248.424 186.839 248.302 186.635 248.174 186.43C245.221 181.709 240.986 177.662 235.584 174.402C234.694 173.865 234.457 172.902 235.054 172.252C235.65 171.601 236.854 171.508 237.743 172.045C243.695 175.637 248.364 180.099 251.62 185.306C252.168 186.183 252.664 187.054 253.103 187.905C259.535 189.402 265.026 191.96 269.096 195.335C276.585 195.12 284.454 195.381 292.671 196.25C293.74 196.363 294.577 197.132 294.538 197.968C294.534 198.058 294.52 198.145 294.497 198.228C294.305 198.922 293.487 199.378 292.532 199.277C285.468 198.53 278.667 198.247 272.15 198.336C273.394 199.799 274.414 201.369 275.172 203.038C276.81 206.639 277.109 210.434 276.074 214.177C275.768 215.281 275.347 216.381 274.809 217.469C272.318 222.514 267.322 227.212 260.362 231.054C254.067 234.529 246.921 236.746 239.12 237.645C238.08 237.765 237.03 237.185 236.775 236.35C236.519 235.516 237.155 234.742 238.194 234.622C245.442 233.786 252.084 231.725 257.935 228.495C270.362 221.636 275.446 212.407 271.537 203.809C270.652 201.863 269.341 200.07 267.671 198.457C263.118 198.64 258.713 199.003 254.463 199.513C253.85 201.586 253.475 203.906 253.324 206.584C253.319 206.67 253.306 206.752 253.284 206.832C253.09 207.53 252.263 207.987 251.303 207.879C250.233 207.759 249.404 206.985 249.452 206.15C249.577 203.918 249.854 201.911 250.284 200.069C244.073 200.974 238.22 202.186 232.751 203.596C232.75 203.597 232.749 203.599 232.748 203.601C231.759 205.434 231.515 207.458 231.258 209.6C231.173 210.308 231.085 211.039 230.968 211.776C230.961 211.821 230.952 211.864 230.94 211.907C230.733 212.653 229.814 213.107 228.808 212.932C227.746 212.748 226.99 211.931 227.12 211.108C227.23 210.414 227.316 209.704 227.398 209.018C227.563 207.648 227.732 206.249 228.106 204.865C223.624 206.159 219.428 207.575 215.537 209.046C215.521 209.073 215.508 209.1 215.49 209.126C213.998 211.218 213.155 213.869 213.052 216.792C213.022 217.628 212.132 218.221 211.061 218.115C209.991 218.009 209.148 217.244 209.177 216.408C209.242 214.569 209.568 212.815 210.134 211.198C207.732 212.205 205.469 213.221 203.351 214.226C202.476 214.642 201.267 214.384 200.65 213.649C200.034 212.916 200.243 211.984 201.118 211.568C205.828 209.332 211.24 207.044 217.297 204.916C215.959 204.026 214.597 202.682 213.996 200.71C213.742 199.875 214.379 199.101 215.419 198.983C216.458 198.864 217.508 199.445 217.762 200.28C218.474 202.616 221.083 203.422 221.435 203.521C226.315 201.946 231.571 200.494 237.178 199.262C235.953 198.376 234.763 197.095 234.213 195.288C233.959 194.453 234.596 193.68 235.635 193.561C236.675 193.443 237.724 194.023 237.979 194.858C238.721 197.297 241.535 198.069 241.686 198.109C241.832 198.145 241.969 198.195 242.099 198.253C248.933 196.96 256.242 196.01 263.988 195.558C258.706 192.143 251.408 189.979 243.019 189.536C230.371 188.868 219.542 191.256 209.292 197.458C209.186 197.55 209.064 197.633 208.922 197.702C208.888 197.718 208.853 197.731 208.818 197.745C200.649 202.791 192.837 210.276 184.752 220.587C187.343 218.924 190.493 217.042 194.218 215.048C195.061 214.597 196.279 214.809 196.938 215.521C197.306 215.918 197.422 216.387 197.307 216.802C197.216 217.133 196.978 217.429 196.605 217.629C189.311 221.533 184.234 225.04 181.386 227.179C186.74 227.456 195.272 228.193 201.471 230.143C205.155 231.302 216.364 234.829 229.178 235.045C230.245 235.064 231.178 235.762 231.26 236.605C231.342 237.447 230.545 238.117 229.477 238.099C215.938 237.87 204.205 234.179 200.35 232.966C191.577 230.206 176.864 230.068 176.717 230.066C176.012 230.061 175.328 229.752 174.934 229.26Z" fill="black"/>
</g>
<defs>
<clipPath id="clip0_509_705">
<rect width="87.5527" height="101.287" fill="white" transform="matrix(0.412576 0.910923 0.928537 -0.371239 0 115.085)"/>
</clipPath>
<clipPath id="clip1_509_705">
<rect width="107.558" height="120.604" fill="white" transform="matrix(0.435488 0.900194 -0.878131 0.478419 125.774 0)"/>
</clipPath>
<clipPath id="clip2_509_705">
<rect width="86.5165" height="105.781" fill="white" transform="matrix(-0.88171 -0.471791 0.518367 -0.855158 216.165 379.47)"/>
</clipPath>
<clipPath id="clip3_509_705">
<rect width="57.1745" height="73.0339" fill="white" transform="matrix(0.325343 0.945596 0.950015 -0.312203 116.174 262.397)"/>
</clipPath>
<clipPath id="clip4_509_705">
<rect width="91.2635" height="97.1827" fill="white" transform="matrix(-0.914372 0.404874 0.448363 0.893851 184.773 168.874)"/>
</clipPath>
<clipPath id="clip5_509_705">
<rect width="91.9525" height="99.3917" fill="white" transform="matrix(0.0996545 0.995022 0.996115 -0.0880656 181.597 225.917)"/>
</clipPath>
<clipPath id="clip6_509_705">
<rect width="83.5638" height="107.995" fill="white" transform="matrix(-0.266547 0.963822 0.971471 0.237159 195.086 152.719)"/>
</clipPath>
</defs>
</svg>
