<svg width="200" height="200" viewBox="0 0 200 200" fill="none" xmlns="http://www.w3.org/2000/svg">
<path d="M133.068 50.2875V46.0269C133.068 43.2968 131.197 40.9562 128.519 40.3351C127.429 40.0824 126.319 39.9078 125.218 39.8164C117.39 39.171 110.725 42.2562 104.281 45.2418C98.2356 48.0421 92.5255 50.6875 86.1981 50.1457C81.9204 49.7793 77.1735 48.5511 72.4704 46.5949C71.2329 46.08 69.8271 46.216 68.7118 46.9601C67.5974 47.7035 66.9321 48.9472 66.9321 50.2875C66.9321 68.5207 81.7661 83.3546 99.9997 83.3546C118.234 83.3546 133.068 68.5207 133.068 50.2875V50.2875ZM100 77.4953C85.9325 77.4953 74.3239 66.7644 72.9321 53.0578C77.2978 54.6343 81.663 55.6375 85.6985 55.9832C93.5774 56.6566 100.271 53.5566 106.744 50.5578C112.763 47.7691 118.449 45.1332 124.735 45.6554C125.553 45.723 126.381 45.8531 127.209 46.0265V50.2871C127.208 65.2898 115.002 77.4953 100 77.4953V77.4953Z" fill="black"/>
<path d="M114.587 93.1859C132.959 86.9414 145.302 69.702 145.302 50.2875V21.8891C152.791 21.4969 158.765 15.2809 158.765 7.69531V7.01875C158.765 3.14883 155.616 0 151.746 0H64.1051C62.4872 0 61.1754 1.31172 61.1754 2.92969C61.1754 4.54766 62.4872 5.85938 64.1051 5.85938H151.746C152.385 5.85938 152.905 6.3793 152.905 7.01875V7.69531C152.905 12.3023 149.157 16.05 144.55 16.05H55.4497C50.8426 16.05 47.095 12.3023 47.095 7.69531V7.01875C47.095 6.3793 47.6153 5.85938 48.2543 5.85938H52.386C54.004 5.85938 55.3157 4.54766 55.3157 2.92969C55.3157 1.31172 54.004 0 52.386 0H48.2543C44.384 0 41.2356 3.14883 41.2356 7.01875V7.69531C41.2356 15.2809 47.2086 21.4969 54.6981 21.8891V50.2871C54.6981 69.7016 67.0415 86.941 85.4133 93.1855C88.3418 94.1809 90.3094 96.9195 90.3094 100C90.3094 103.08 88.3418 105.819 85.4133 106.814C67.0415 113.059 54.6981 130.298 54.6981 149.713V178.111C47.2086 178.503 41.2356 184.719 41.2356 192.304V192.981C41.2356 196.851 44.3844 200 48.2543 200H91.4731C93.0911 200 94.4028 198.688 94.4028 197.07C94.4028 195.452 93.0911 194.14 91.4731 194.14H48.2543C47.6149 194.14 47.095 193.62 47.095 192.981V192.305C47.095 187.698 50.843 183.95 55.4497 183.95H144.55C149.157 183.95 152.905 187.698 152.905 192.305V192.981C152.905 193.62 152.384 194.141 151.745 194.141H103.192C101.574 194.141 100.262 195.452 100.262 197.07C100.262 198.688 101.574 200 103.192 200H151.745C155.616 200 158.764 196.852 158.764 192.981V192.305C158.764 184.719 152.791 178.503 145.302 178.111V149.713C145.302 130.298 132.958 113.059 114.586 106.814C111.658 105.819 109.69 103.08 109.69 100C109.691 96.9195 111.658 94.1812 114.587 93.1859V93.1859ZM100 155.13C106.798 155.13 113.305 157.65 118.323 162.226C122.921 166.419 125.916 172.005 126.87 178.091H73.1317C74.0778 172.056 77.0262 166.513 81.5672 162.327C86.6016 157.686 93.1477 155.13 100 155.13V155.13ZM112.701 112.362C128.696 117.799 139.443 132.809 139.443 149.713V178.091H132.786C131.79 170.339 128.086 163.198 122.272 157.897C116.897 152.996 110.117 150.038 102.93 149.403V140.552C102.93 138.934 101.618 137.623 100 137.623C98.3821 137.623 97.0704 138.934 97.0704 140.552V149.403C89.82 150.042 82.993 153.043 77.5958 158.018C71.8504 163.315 68.1973 170.4 67.2098 178.091H60.5575V149.713C60.5575 132.809 71.304 117.799 87.2989 112.362C92.604 110.559 96.1684 105.591 96.1684 100C96.1684 94.4094 92.604 89.4414 87.2989 87.6383C71.304 82.202 60.5575 67.1918 60.5575 50.2875V21.9094H139.443V50.2875C139.443 67.1914 128.696 82.2016 112.701 87.6383C107.396 89.4418 103.832 94.4098 103.832 100C103.831 105.591 107.396 110.559 112.701 112.362Z" fill="black"/>
<path d="M100 115.982C98.382 115.982 97.0703 117.294 97.0703 118.912V126.371C97.0703 127.989 98.382 129.301 100 129.301C101.618 129.301 102.93 127.989 102.93 126.371V118.912C102.93 117.294 101.618 115.982 100 115.982Z" fill="black"/>
</svg>
